<svg width="10" height="15" viewBox="0 0 10 15" fill="none" xmlns="http://www.w3.org/2000/svg">
<path fill-rule="evenodd" clip-rule="evenodd" d="M8.02789 14.6502C8.33493 14.6502 8.65114 14.5421 8.90154 14.3052C9.40001 13.8335 9.40001 13.0475 8.90154 12.5758L3.74537 7.69694L8.90154 2.81807C9.40001 2.34642 9.40001 1.56037 8.90154 1.08871C8.41875 0.631888 7.63703 0.631888 7.15424 1.08871L1.08424 6.83226C0.585773 7.30392 0.585773 8.08997 1.08424 8.56162L7.15424 14.3052C7.40464 14.5421 7.72085 14.6502 8.02789 14.6502ZM3.01789 7.69694L8.55789 12.939C8.84789 13.2134 8.84789 13.6676 8.55789 13.942C8.40789 14.0839 8.21789 14.1502 8.02789 14.1502C7.83789 14.1502 7.64789 14.0839 7.49789 13.942L1.42789 8.19844C1.13789 7.92403 1.13789 7.46985 1.42789 7.19545L7.49789 1.4519C7.78789 1.17749 8.26789 1.17749 8.55789 1.4519C8.84789 1.7263 8.84789 2.18049 8.55789 2.45489L3.01789 7.69694Z" fill="white"/>
</svg>
